<svg width="1009" height="738" viewBox="0 0 1009 738" fill="none" xmlns="http://www.w3.org/2000/svg">
<path opacity="0.3" d="M77 209.307C20.4095 136.524 -6.50003 72 2.18958 0H1008.95V209.307V696.545C1019.55 705.368 792.843 764.194 691.428 723.995C564.66 673.745 568.507 644.255 463.451 601.94C358.394 559.625 399.724 422.204 363.304 379.889C326.885 337.574 163.008 297.53 77 209.307Z" fill="#B4B4B4" fill-opacity="0.17"/>
<path opacity="0.4" d="M127.5 212.5C79.9204 151.28 49.5 50.5 54.8647 0H1088.13V193.379V694.617C995.487 695.506 789.901 708.058 704.634 674.245C598.051 631.978 583.683 597.338 495.354 561.745C407.026 526.153 422.295 409.109 391.674 373.517C361.053 337.924 186.975 289.025 127.5 212.5Z" fill="url(#paint0_linear_2_75)" fill-opacity="0.89"/>
<defs>
<linearGradient id="paint0_linear_2_75" x1="1089.31" y1="-51.9588" x2="510.8" y2="500.738" gradientUnits="userSpaceOnUse">
<stop offset="0.18256" stop-color="#FF1F00"/>
<stop offset="1" stop-color="#FF8473"/>
</linearGradient>
</defs>
</svg>
