<?xml version="1.0" encoding="UTF-8"?>
<svg version="1.1" xmlns="http://www.w3.org/2000/svg" width="512" height="512">
<path d="M0 0 C1.01790619 0.00215515 2.03581238 0.0043103 3.08456421 0.00653076 C17.69363523 0.05620146 32.02575853 0.30709809 46.375 3.3125 C47.34985352 3.51117676 48.32470703 3.70985352 49.32910156 3.91455078 C97.7109774 14.03517194 141.69928269 35.9516877 177.375 70.3125 C178.3640332 71.26068604 178.3640332 71.26068604 179.37304688 72.22802734 C188.86130305 81.37247479 197.6012044 90.66984009 205.375 101.3125 C206.23306152 102.46355017 207.09113451 103.61459177 207.94921875 104.765625 C213.98736829 112.95680614 219.34595521 121.47054105 224.375 130.3125 C224.73948242 130.94430176 225.10396484 131.57610352 225.47949219 132.22705078 C247.08534998 169.97532572 256.85198095 212.74189997 256.6875 255.9375 C256.68534485 256.95540619 256.6831897 257.97331238 256.68096924 259.02206421 C256.63129854 273.63113523 256.38040191 287.96325853 253.375 302.3125 C253.07698486 303.77478027 253.07698486 303.77478027 252.77294922 305.26660156 C242.65232806 353.6484774 220.7358123 397.63678269 186.375 433.3125 C185.74287598 433.97185547 185.11075195 434.63121094 184.45947266 435.31054688 C175.31502521 444.79880305 166.01765991 453.5387044 155.375 461.3125 C154.22394983 462.17056152 153.07290823 463.02863451 151.921875 463.88671875 C143.73224019 469.92427396 135.22961724 475.30707302 126.375 480.3125 C125.66778809 480.7146875 124.96057617 481.116875 124.23193359 481.53125 C101.09654164 494.5566741 75.92537591 503.30551461 49.9375 508.625 C49.21860596 508.77235596 48.49971191 508.91971191 47.7590332 509.0715332 C33.08339502 511.86090125 18.55831162 512.66142619 3.64770508 512.62817383 C0.70811513 512.6250221 -2.2304558 512.64854926 -5.16992188 512.67382812 C-18.54306192 512.71848737 -31.43916711 511.51301542 -44.625 509.3125 C-46.33055054 509.03031616 -46.33055054 509.03031616 -48.07055664 508.74243164 C-91.33802759 500.97044532 -132.38793216 480.98345309 -165.625 452.3125 C-166.37007813 451.67828125 -167.11515625 451.0440625 -167.8828125 450.390625 C-181.38779833 438.57948485 -194.05918743 425.82889772 -204.625 411.3125 C-205.48149066 410.16255169 -206.33826433 409.01281411 -207.1953125 407.86328125 C-213.23534209 399.67315742 -218.61867614 391.16870382 -223.625 382.3125 C-224.0271875 381.60528809 -224.429375 380.89807617 -224.84375 380.16943359 C-237.8691741 357.03404164 -246.61801461 331.86287591 -251.9375 305.875 C-252.08485596 305.15610596 -252.23221191 304.43721191 -252.3840332 303.6965332 C-255.35789088 288.05024391 -255.99800362 272.57681954 -255.9375 256.6875 C-255.93534485 255.66959381 -255.9331897 254.65168762 -255.93096924 253.60293579 C-255.88129854 238.99386477 -255.63040191 224.66174147 -252.625 210.3125 C-252.42632324 209.33764648 -252.22764648 208.36279297 -252.02294922 207.35839844 C-241.90232806 158.9765226 -219.9858123 114.98821731 -185.625 79.3125 C-184.99287598 78.65314453 -184.36075195 77.99378906 -183.70947266 77.31445312 C-174.56502521 67.82619695 -165.26765991 59.0862956 -154.625 51.3125 C-153.47394983 50.45443848 -152.32290823 49.59636549 -151.171875 48.73828125 C-142.98224019 42.70072604 -134.47961724 37.31792698 -125.625 32.3125 C-124.91778809 31.9103125 -124.21057617 31.508125 -123.48193359 31.09375 C-100.34654164 18.0683259 -75.17537591 9.31948539 -49.1875 4 C-48.46860596 3.85264404 -47.74971191 3.70528809 -47.0090332 3.5534668 C-31.36274391 0.57960912 -15.88931954 -0.06050362 0 0 Z " fill="#1793D1" transform="translate(255.625,-0.3125)"/>
<path d="M0 0 C0.66 0 1.32 0 2 0 C2.47195801 1.10472656 2.94391602 2.20945313 3.43017578 3.34765625 C8.93886366 16.23804211 14.46346965 29.12154897 20 42 C20.33676758 42.78391113 20.67353516 43.56782227 21.02050781 44.37548828 C34.93444398 76.75297415 50.12167131 108.41857345 65.875 139.9375 C66.21258709 140.61326332 66.55017418 141.28902664 66.89799118 141.98526764 C74.4561878 157.11293884 82.06610593 172.20572127 90.01092529 187.13522339 C91.41694221 189.78609237 92.79960544 192.44883616 94.1796875 195.11328125 C99.49777768 205.37397686 104.91611685 215.56827458 110.48193359 225.69677734 C114.76581446 233.51468406 118.90089285 241.40598236 122.9921875 249.32617188 C125.03693688 253.27728289 127.08906714 257.1992287 129.34375 261.03515625 C131 264 131 264 131 266 C125.90245808 264.42778516 121.15470068 262.33341889 116.3125 260.125 C107.02352705 255.94787732 97.9049184 252.40817255 88 250 C88.969375 250.52207031 89.93875 251.04414063 90.9375 251.58203125 C105.57594376 259.57434861 119.21726492 268.8243444 132.07080078 279.46313477 C133.53045217 280.62594235 135.03829723 281.7285863 136.56591797 282.80053711 C145.0647657 289.06249753 148.95542524 296.07345688 153.5 305.3125 C154.22508539 306.73900471 154.95289535 308.16412763 155.68334961 309.58789062 C157.12760005 312.40630739 158.56137671 315.22964899 159.98779297 318.05712891 C162.7182344 323.44165515 165.62551001 328.72591794 168.5625 334 C169.02140625 334.82927002 169.4803125 335.65854004 169.953125 336.51293945 C170.96629642 338.34331992 171.98268931 340.17191687 173 342 C169.42584517 342 167.94487284 341.07429048 164.828125 339.359375 C163.78277588 338.78920654 162.73742676 338.21903809 161.66040039 337.6315918 C159.9722522 336.70020386 159.9722522 336.70020386 158.25 335.75 C155.88050437 334.45669491 153.50841557 333.16816916 151.13671875 331.87890625 C150.53649399 331.55183182 149.93626923 331.22475739 149.31785583 330.88777161 C114.66873826 312.01809727 78.08695775 293.45993627 39 286 C39.0721875 285.37738281 39.144375 284.75476563 39.21875 284.11328125 C41.78681815 258.5396026 40.07729686 233.2354296 24 212 C18.34523073 205.66194611 11.69900389 201.86422663 3.26953125 200.5859375 C-4.86432229 200.14999048 -10.90156338 202.70517841 -17.19140625 207.76171875 C-26.10037133 216.09591189 -30.53757486 226.4711279 -34 238 C-34.19053955 238.62366455 -34.3810791 239.2473291 -34.57739258 239.88989258 C-36.3844008 246.67557242 -36.26930187 253.51245423 -36.20581055 260.48413086 C-36.18750607 262.56181112 -36.18530189 264.6390441 -36.18554688 266.71679688 C-36.16774997 273.21500127 -36.03354855 279.57546222 -35 286 C-35.81597656 286.13535156 -36.63195312 286.27070313 -37.47265625 286.41015625 C-81.56173696 294.42199137 -126.08581428 316.58727287 -163.95214844 340.14355469 C-165.60127512 341.15259801 -167.29679156 342.08519496 -169 343 C-169.66 342.67 -170.32 342.34 -171 342 C-164.61139731 330.10294591 -158.17986803 318.23650464 -151.5 306.5 C-146.50539043 297.72353191 -141.66025196 288.8759672 -136.87719727 279.98266602 C-133.15491703 273.08057653 -129.32485059 266.24775779 -125.4375 259.4375 C-120.5758992 250.90731588 -115.95301763 242.27811797 -111.44897461 233.55444336 C-108.05348529 226.98633037 -104.56164123 220.4793961 -101 214 C-95.31125173 203.64010883 -89.83900026 193.17491288 -84.39648438 182.68408203 C-82.32229159 178.69742548 -80.22365294 174.72381633 -78.125 170.75 C-68.2169805 151.95161779 -58.45140107 133.08492987 -49.01464844 114.04516602 C-48.01390302 112.02802349 -47.00803072 110.01351017 -46 108 C-45.51273437 108.32871094 -45.02546875 108.65742188 -44.5234375 108.99609375 C-42.02225765 110.67415805 -39.51080843 112.33637591 -37 114 C-35.95972656 114.69996094 -34.91945312 115.39992188 -33.84765625 116.12109375 C-23.81399094 122.79170693 -13.28179924 128.69082908 -2 133 C-2.63164062 132.48953125 -3.26328125 131.9790625 -3.9140625 131.453125 C-6.95415279 128.98250408 -9.98104352 126.49636047 -13 124 C-13.55091309 123.54512207 -14.10182617 123.09024414 -14.66943359 122.62158203 C-23.96937426 114.90529764 -32.57308641 106.65743706 -41 98 C-40.18780307 96.10487383 -39.37557363 94.20976159 -38.56323242 92.31469727 C-37.79079173 90.51200061 -37.01884489 88.70909228 -36.24731445 86.90600586 C-33.97384725 81.59524479 -31.69363729 76.28752018 -29.40028381 70.98532104 C-21.87678828 53.58646208 -14.54775752 36.13559458 -7.5859375 18.50390625 C-5.1358228 12.30257507 -2.58812127 6.14486752 0 0 Z " fill="#FDFEFE" transform="translate(255,41)"/>
<path d="M0 0 C1.60568666 0.28317926 3.20952047 0.57687791 4.8125 0.875 C6.15248047 1.11863281 6.15248047 1.11863281 7.51953125 1.3671875 C10 2 10 2 13 4 C12.34 4 11.68 4 11 4 C11 4.66 11 5.32 11 6 C7.2089881 4.55049545 3.6125362 2.84827434 0 1 C0 0.67 0 0.34 0 0 Z " fill="#4AAADB" transform="translate(341,290)"/>
</svg>
